<svg width="22" height="22" viewBox="0 0 22 22" fill="none" xmlns="http://www.w3.org/2000/svg">
<path d="M7.64022 14.3555C7.3503 14.0656 7.3503 13.5848 7.64022 13.2949L9.76154 11.1736L7.10989 8.52191C6.72098 8.133 6.08458 8.133 5.69567 8.52191L4.11882 10.0988C1.89144 12.3261 1.7783 16.088 4.08347 18.2234C5.13706 19.1922 6.47349 19.6801 7.81699 19.6801C9.22413 19.673 10.6313 19.1427 11.7061 18.0679L13.4738 16.3001C13.8628 15.9112 13.8628 15.2748 13.4738 14.8859L10.8222 12.2342L8.70088 14.3555C8.41096 14.6455 7.93013 14.6455 7.64022 14.3555Z" fill="#4894FE"/>
<path d="M14.1805 2.31349C12.7733 2.32057 11.3662 2.85089 10.2914 3.9257L8.52363 5.69346C8.13473 6.08237 8.13473 6.71877 8.52363 7.10768L11.1753 9.75933L13.2966 7.63801C13.5865 7.34809 14.0674 7.34809 14.3573 7.63801C14.6472 7.92792 14.6472 8.40875 14.3573 8.69867L12.2359 10.82L14.8876 13.4716C15.2765 13.8605 15.9129 13.8605 16.3018 13.4716L17.8787 11.8948C20.106 9.6674 20.2192 5.9056 17.9069 3.7772C16.8604 2.8014 15.5169 2.32057 14.1805 2.31349Z" fill="#4894FE"/>
<path d="M11.1753 9.75934L9.76111 11.1735L10.8218 12.2342L12.236 10.82L11.1753 9.75934Z" fill="#4894FE"/>
</svg>
